<?xml version="1.0" encoding="UTF-8" standalone="no"?>
<!-- Created with Inkscape (http://www.inkscape.org/) -->

<svg
   xmlns:dc="http://purl.org/dc/elements/1.1/"
   xmlns:cc="http://creativecommons.org/ns#"
   xmlns:rdf="http://www.w3.org/1999/02/22-rdf-syntax-ns#"
   xmlns:svg="http://www.w3.org/2000/svg"
   xmlns="http://www.w3.org/2000/svg"
   xmlns:sodipodi="http://sodipodi.sourceforge.net/DTD/sodipodi-0.dtd"
   xmlns:inkscape="http://www.inkscape.org/namespaces/inkscape"
   width="210mm"
   height="297mm"
   id="svg2"
   version="1.1"
   inkscape:version="0.48.2 r9819"
   sodipodi:docname="Documento nuevo 1">
  <defs
     id="defs4">
    <clipPath
       id="clipPath3727"
       clipPathUnits="userSpaceOnUse">
      <path
         id="path3729"
         d="m 423.617,467.714 30.172,0 0,-19.627 -30.172,0 0,19.627 z" />
    </clipPath>
    <clipPath
       id="clipPath3711"
       clipPathUnits="userSpaceOnUse">
      <path
         id="path3713"
         d="m 420.061,481.813 30.168,0 0,-19.632 -30.168,0 0,19.632 z" />
    </clipPath>
    <clipPath
       id="clipPath3691"
       clipPathUnits="userSpaceOnUse">
      <path
         id="path3693"
         d="m 393.843,464.026 27.375,0 0,-28.322 -27.375,0 0,28.322 z" />
    </clipPath>
    <clipPath
       id="clipPath3675"
       clipPathUnits="userSpaceOnUse">
      <path
         id="path3677"
         d="m 478.351,465.079 24.934,0 0,-28.323 -24.934,0 0,28.323 z" />
    </clipPath>
    <clipPath
       id="clipPath3659"
       clipPathUnits="userSpaceOnUse">
      <path
         id="path3661"
         d="m 368.53,480.625 36.218,0 0,-44.661 -36.218,0 0,44.661 z" />
    </clipPath>
    <clipPath
       id="clipPath3643"
       clipPathUnits="userSpaceOnUse">
      <path
         id="path3645"
         d="m 453.289,483.261 41.732,0 0,-47.823 -41.732,0 0,47.823 z" />
    </clipPath>
    <clipPath
       id="clipPath3627"
       clipPathUnits="userSpaceOnUse">
      <path
         id="path3629"
         d="m 385.412,495 32.767,0 0,-43.027 -32.767,0 0,43.027 z" />
    </clipPath>
    <clipPath
       id="clipPath3611"
       clipPathUnits="userSpaceOnUse">
      <path
         id="path3613"
         d="m 446.142,501.84 27.652,0 0,-26.929 -27.652,0 0,26.929 z" />
    </clipPath>
    <clipPath
       id="clipPath3595"
       clipPathUnits="userSpaceOnUse">
      <path
         id="path3597"
         d="m 393.184,508.425 22.692,0 0,-21.984 -22.692,0 0,21.984 z" />
    </clipPath>
    <clipPath
       id="clipPath3579"
       clipPathUnits="userSpaceOnUse">
      <path
         id="path3581"
         d="m 408.204,516.856 44.661,0 0,-36.22 -44.661,0 0,36.22 z" />
    </clipPath>
    <clipPath
       id="clipPath3563"
       clipPathUnits="userSpaceOnUse">
      <path
         id="path3565"
         d="m 407.282,495.119 59.285,0 0,-59.287 -59.285,0 0,59.287 z" />
    </clipPath>
    <clipPath
       id="clipPath3547"
       clipPathUnits="userSpaceOnUse">
      <path
         id="path3549"
         d="m 852.227,318.226 25.917,0 0,-16.861 -25.917,0 0,16.861 z" />
    </clipPath>
    <clipPath
       id="clipPath3531"
       clipPathUnits="userSpaceOnUse">
      <path
         id="path3533"
         d="m 849.172,330.336 25.914,0 0,-16.863 -25.914,0 0,16.863 z" />
    </clipPath>
    <clipPath
       id="clipPath3511"
       clipPathUnits="userSpaceOnUse">
      <path
         id="path3513"
         d="m 826.65,315.058 23.516,0 0,-24.329 -23.516,0 0,24.329 z" />
    </clipPath>
    <clipPath
       id="clipPath3495"
       clipPathUnits="userSpaceOnUse">
      <path
         id="path3497"
         d="m 899.242,315.962 21.419,0 0,-24.33 -21.419,0 0,24.33 z" />
    </clipPath>
    <clipPath
       id="clipPath3479"
       clipPathUnits="userSpaceOnUse">
      <path
         id="path3481"
         d="m 804.906,329.316 31.112,0 0,-38.364 -31.112,0 0,38.364 z" />
    </clipPath>
    <clipPath
       id="clipPath3463"
       clipPathUnits="userSpaceOnUse">
      <path
         id="path3465"
         d="m 877.714,331.58 35.848,0 0,-41.08 -35.848,0 0,41.08 z" />
    </clipPath>
    <clipPath
       id="clipPath3447"
       clipPathUnits="userSpaceOnUse">
      <path
         id="path3449"
         d="m 819.407,341.664 28.148,0 0,-36.961 -28.148,0 0,36.961 z" />
    </clipPath>
    <clipPath
       id="clipPath3431"
       clipPathUnits="userSpaceOnUse">
      <path
         id="path3433"
         d="m 871.575,347.54 23.753,0 0,-23.133 -23.753,0 0,23.133 z" />
    </clipPath>
    <clipPath
       id="clipPath3415"
       clipPathUnits="userSpaceOnUse">
      <path
         id="path3417"
         d="m 826.084,353.195 19.492,0 0,-18.883 -19.492,0 0,18.883 z" />
    </clipPath>
    <clipPath
       id="clipPath3399"
       clipPathUnits="userSpaceOnUse">
      <path
         id="path3401"
         d="m 838.986,360.438 38.364,0 0,-31.113 -38.364,0 0,31.113 z" />
    </clipPath>
    <clipPath
       id="clipPath3383"
       clipPathUnits="userSpaceOnUse">
      <path
         id="path3385"
         d="m 838.193,341.766 50.927,0 0,-50.928 -50.927,0 0,50.928 z" />
    </clipPath>
    <clipPath
       id="clipPath3081"
       clipPathUnits="userSpaceOnUse">
      <path
         id="path3083"
         d="m 904.671,388.1 19.332,0 0,-22.773 -19.332,0 0,22.773 z" />
    </clipPath>
    <clipPath
       id="clipPath3077"
       clipPathUnits="userSpaceOnUse">
      <path
         id="path3079"
         d="m 904.671,384.612 0,3.488 c 10.656,0 19.332,-8.655 19.332,-19.286 l 0,-3.487 c 0,10.63 -8.676,19.285 -19.332,19.285" />
    </clipPath>
    <clipPath
       id="clipPath3073"
       clipPathUnits="userSpaceOnUse">
      <path
         id="path3075"
         d="m 904.671,388.1 19.332,0 0,-22.773 -19.332,0 0,22.773 z" />
    </clipPath>
    <clipPath
       id="clipPath3069"
       clipPathUnits="userSpaceOnUse">
      <path
         id="path3071"
         d="m 802.503,388.1 19.323,0 0,-22.773 -19.323,0 0,22.773 z" />
    </clipPath>
    <clipPath
       id="clipPath3065"
       clipPathUnits="userSpaceOnUse">
      <path
         id="path3067"
         d="m 802.503,365.327 0,3.487 c 0,10.631 8.667,19.286 19.323,19.286 l 0,-3.488 c -10.656,0 -19.323,-8.655 -19.323,-19.285" />
    </clipPath>
    <clipPath
       id="clipPath3061"
       clipPathUnits="userSpaceOnUse">
      <path
         id="path3063"
         d="m 802.503,388.1 19.323,0 0,-22.773 -19.323,0 0,22.773 z" />
    </clipPath>
    <clipPath
       id="clipPath3057"
       clipPathUnits="userSpaceOnUse">
      <path
         id="path3059"
         d="m 904.671,387.095 18.333,0 0,-21.768 -18.333,0 0,21.768 z" />
    </clipPath>
    <clipPath
       id="clipPath3053"
       clipPathUnits="userSpaceOnUse">
      <path
         id="path3055"
         d="m 904.671,383.606 0,3.489 c 10.107,0 18.333,-8.198 18.333,-18.281 l 0,-3.487 c 0,10.083 -8.226,18.279 -18.333,18.279" />
    </clipPath>
    <clipPath
       id="clipPath3049"
       clipPathUnits="userSpaceOnUse">
      <path
         id="path3051"
         d="m 904.671,387.095 18.333,0 0,-21.768 -18.333,0 0,21.768 z" />
    </clipPath>
    <clipPath
       id="clipPath3045"
       clipPathUnits="userSpaceOnUse">
      <path
         id="path3047"
         d="m 803.502,387.095 18.324,0 0,-21.768 -18.324,0 0,21.768 z" />
    </clipPath>
    <clipPath
       id="clipPath3041"
       clipPathUnits="userSpaceOnUse">
      <path
         id="path3043"
         d="m 803.502,365.327 0,3.487 c 0,10.083 8.217,18.281 18.324,18.281 l 0,-3.489 c -10.107,0 -18.324,-8.196 -18.324,-18.279" />
    </clipPath>
    <clipPath
       id="clipPath3037"
       clipPathUnits="userSpaceOnUse">
      <path
         id="path3039"
         d="m 803.502,387.095 18.324,0 0,-21.768 -18.324,0 0,21.768 z" />
    </clipPath>
    <clipPath
       id="clipPath3033"
       clipPathUnits="userSpaceOnUse">
      <path
         id="path3035"
         d="m 904.671,286.172 18.333,0 0,-21.768 -18.333,0 0,21.768 z" />
    </clipPath>
    <clipPath
       id="clipPath3029"
       clipPathUnits="userSpaceOnUse">
      <path
         id="path3031"
         d="m 904.671,264.404 0,3.489 c 10.107,0 18.333,8.196 18.333,18.279 l 0,-3.487 c 0,-10.083 -8.226,-18.281 -18.333,-18.281" />
    </clipPath>
    <clipPath
       id="clipPath3025"
       clipPathUnits="userSpaceOnUse">
      <path
         id="path3027"
         d="m 904.671,286.172 18.333,0 0,-21.768 -18.333,0 0,21.768 z" />
    </clipPath>
    <clipPath
       id="clipPath3021"
       clipPathUnits="userSpaceOnUse">
      <path
         id="path3023"
         d="m 803.502,286.172 18.324,0 0,-21.768 -18.324,0 0,21.768 z" />
    </clipPath>
    <clipPath
       id="clipPath3017"
       clipPathUnits="userSpaceOnUse">
      <path
         id="path3019"
         d="m 803.502,282.685 0,3.487 c 0,-10.083 8.217,-18.279 18.324,-18.279 l 0,-3.489 c -10.107,0 -18.324,8.198 -18.324,18.281" />
    </clipPath>
    <clipPath
       id="clipPath3013"
       clipPathUnits="userSpaceOnUse">
      <path
         id="path3015"
         d="m 803.502,286.172 18.324,0 0,-21.768 -18.324,0 0,21.768 z" />
    </clipPath>
    <clipPath
       id="clipPath3009"
       clipPathUnits="userSpaceOnUse">
      <path
         id="path3011"
         d="m 802.503,388.1 121.5,0 0,-124.692 -121.5,0 0,124.692 z" />
    </clipPath>
    <clipPath
       id="clipPath3001"
       clipPathUnits="userSpaceOnUse">
      <path
         id="path3003"
         d="M 0,800 1280,800 1280,0 0,0 0,800 z" />
    </clipPath>
  </defs>
  <sodipodi:namedview
     id="base"
     pagecolor="#ffffff"
     bordercolor="#666666"
     borderopacity="1.0"
     inkscape:pageopacity="0.0"
     inkscape:pageshadow="2"
     inkscape:zoom="0.49032549"
     inkscape:cx="372.04724"
     inkscape:cy="526.18109"
     inkscape:document-units="px"
     inkscape:current-layer="layer1"
     showgrid="false"
     inkscape:window-width="1366"
     inkscape:window-height="705"
     inkscape:window-x="-8"
     inkscape:window-y="-8"
     inkscape:window-maximized="1" />
  <metadata
     id="metadata7">
    <rdf:RDF>
      <cc:Work
         rdf:about="">
        <dc:format>image/svg+xml</dc:format>
        <dc:type
           rdf:resource="http://purl.org/dc/dcmitype/StillImage" />
        <dc:title></dc:title>
      </cc:Work>
    </rdf:RDF>
  </metadata>
  <g
     inkscape:label="Capa 1"
     inkscape:groupmode="layer"
     id="layer1">
    <path
       id="path3747"
       style="fill:#000000;fill-opacity:1;fill-rule:evenodd;stroke:none"
       d="m 254.62344,812.91177 c -104.76901,0 -159.579279,-75.21124 -159.579279,-149.5011 l 0,-23.68698 66.837219,0 0,23.68698 c 0,43.98194 35.46116,91.44559 92.74206,91.44559 51.43457,0 92.71759,-39.08148 92.71759,-92.6116 0,-53.15504 -39.61147,-88.16773 -82.79434,-107.88378 -11.78233,-5.37339 -41.85379,-19.75681 -51.6955,-24.38005 -59.62921,-28.09006 -111.67533,-72.11278 -111.67533,-150.91179 0,-97.83822 82.66388,-139.61862 153.44758,-139.61862 106.47316,0 154.95604,77.50248 154.95604,149.50926 l 0,23.68704 -66.83723,0 0,-23.68704 c 0,-53.83997 -36.23577,-91.43744 -88.11881,-91.43744 -46.7298,0 -86.61035,31.93053 -86.61035,79.45126 0,47.50448 31.70222,76.255 72.87109,95.94658 9.93956,4.74555 37.71162,17.94666 48.90688,23.09175 65.14122,29.90837 124.39535,80.25849 124.39535,165.71099 0,104.88315 -85.95804,151.18895 -159.56297,151.18895 m 284.90418,-11.41541 -65.29615,0 0,-413.36022 65.29615,0 z m -0.99478,-445.01352 -62.72767,0 77.70632,-84.48219 95.53883,0 z"
       inkscape:connector-curvature="0"
       sodipodi:nodetypes="csccsssccsssccsssccsccccccccccc" />
  </g>
</svg>
